<mxfile host="app.diagrams.net" agent="Mozilla/5.0 (Windows NT 10.0; Win64; x64) AppleWebKit/537.36 (KHTML, like Gecko) Chrome/131.0.0.0 Safari/537.36" version="24.9.0">
  <diagram name="Seite-1" id="LlAV0aN3McVEwdfRjpWG">
    <mxGraphModel dx="503" dy="270" grid="1" gridSize="10" guides="1" tooltips="1" connect="1" arrows="1" fold="1" page="1" pageScale="1" pageWidth="827" pageHeight="1169" math="0" shadow="0">
      <root>
        <mxCell id="0" />
        <mxCell id="1" parent="0" />
        <mxCell id="kLmIG4iRkcMbvo4lLbTO-1" value="Prinzipal" style="ellipse;whiteSpace=wrap;html=1;" parent="1" vertex="1">
          <mxGeometry x="180" y="230" width="90" height="50" as="geometry" />
        </mxCell>
        <mxCell id="kLmIG4iRkcMbvo4lLbTO-2" value="Agent" style="ellipse;whiteSpace=wrap;html=1;" parent="1" vertex="1">
          <mxGeometry x="470" y="230" width="90" height="50" as="geometry" />
        </mxCell>
        <mxCell id="kLmIG4iRkcMbvo4lLbTO-3" value="" style="shape=flexArrow;endArrow=classic;startArrow=classic;html=1;rounded=0;exitX=1;exitY=0.5;exitDx=0;exitDy=0;entryX=0;entryY=0.5;entryDx=0;entryDy=0;" parent="1" source="kLmIG4iRkcMbvo4lLbTO-1" target="kLmIG4iRkcMbvo4lLbTO-2" edge="1">
          <mxGeometry width="100" height="100" relative="1" as="geometry">
            <mxPoint x="360" y="360" as="sourcePoint" />
            <mxPoint x="460" y="260" as="targetPoint" />
          </mxGeometry>
        </mxCell>
        <mxCell id="kLmIG4iRkcMbvo4lLbTO-4" value="Interessenskonflikt" style="edgeLabel;html=1;align=center;verticalAlign=middle;resizable=0;points=[];" parent="kLmIG4iRkcMbvo4lLbTO-3" vertex="1" connectable="0">
          <mxGeometry x="-0.03" y="3" relative="1" as="geometry">
            <mxPoint as="offset" />
          </mxGeometry>
        </mxCell>
        <mxCell id="kLmIG4iRkcMbvo4lLbTO-5" value="" style="edgeStyle=elbowEdgeStyle;elbow=horizontal;endArrow=classic;html=1;curved=0;rounded=0;endSize=8;startSize=8;exitX=0.5;exitY=0;exitDx=0;exitDy=0;entryX=0.5;entryY=0;entryDx=0;entryDy=0;" parent="1" source="kLmIG4iRkcMbvo4lLbTO-1" target="kLmIG4iRkcMbvo4lLbTO-2" edge="1">
          <mxGeometry width="50" height="50" relative="1" as="geometry">
            <mxPoint x="390" y="330" as="sourcePoint" />
            <mxPoint x="460" y="190" as="targetPoint" />
            <Array as="points">
              <mxPoint x="370" y="200" />
            </Array>
          </mxGeometry>
        </mxCell>
        <mxCell id="kLmIG4iRkcMbvo4lLbTO-7" value="Beauftragt" style="edgeLabel;html=1;align=center;verticalAlign=middle;resizable=0;points=[];" parent="kLmIG4iRkcMbvo4lLbTO-5" vertex="1" connectable="0">
          <mxGeometry x="-0.1029" y="2" relative="1" as="geometry">
            <mxPoint x="8" as="offset" />
          </mxGeometry>
        </mxCell>
        <mxCell id="kLmIG4iRkcMbvo4lLbTO-8" value="" style="edgeStyle=elbowEdgeStyle;elbow=horizontal;endArrow=classic;html=1;curved=0;rounded=0;endSize=8;startSize=8;exitX=0.5;exitY=1;exitDx=0;exitDy=0;entryX=0.5;entryY=1;entryDx=0;entryDy=0;" parent="1" source="kLmIG4iRkcMbvo4lLbTO-2" target="kLmIG4iRkcMbvo4lLbTO-1" edge="1">
          <mxGeometry width="50" height="50" relative="1" as="geometry">
            <mxPoint x="235" y="320" as="sourcePoint" />
            <mxPoint x="525" y="320" as="targetPoint" />
            <Array as="points">
              <mxPoint x="370" y="320" />
            </Array>
          </mxGeometry>
        </mxCell>
        <mxCell id="kLmIG4iRkcMbvo4lLbTO-9" value="Leistung" style="edgeLabel;html=1;align=center;verticalAlign=middle;resizable=0;points=[];" parent="kLmIG4iRkcMbvo4lLbTO-8" vertex="1" connectable="0">
          <mxGeometry x="-0.1029" y="2" relative="1" as="geometry">
            <mxPoint x="-29" as="offset" />
          </mxGeometry>
        </mxCell>
        <mxCell id="kLmIG4iRkcMbvo4lLbTO-10" value="" style="html=1;shadow=0;dashed=0;align=center;verticalAlign=middle;shape=mxgraph.arrows2.uTurnArrow;dy=3;arrowHead=17;dx2=27.75;" parent="1" vertex="1">
          <mxGeometry x="120" y="230" width="50" height="50" as="geometry" />
        </mxCell>
        <mxCell id="kLmIG4iRkcMbvo4lLbTO-11" value="" style="html=1;shadow=0;dashed=0;align=center;verticalAlign=middle;shape=mxgraph.arrows2.uTurnArrow;dy=3;arrowHead=17;dx2=27.75;flipH=1;" parent="1" vertex="1">
          <mxGeometry x="570" y="230" width="50" height="50" as="geometry" />
        </mxCell>
        <mxCell id="kLmIG4iRkcMbvo4lLbTO-12" value="Eigeninterese" style="text;html=1;align=center;verticalAlign=middle;resizable=0;points=[];autosize=1;strokeColor=none;fillColor=none;" parent="1" vertex="1">
          <mxGeometry x="20" y="240" width="100" height="30" as="geometry" />
        </mxCell>
        <mxCell id="kLmIG4iRkcMbvo4lLbTO-13" value="Eigeninterese" style="text;html=1;align=center;verticalAlign=middle;resizable=0;points=[];autosize=1;strokeColor=none;fillColor=none;" parent="1" vertex="1">
          <mxGeometry x="620" y="240" width="100" height="30" as="geometry" />
        </mxCell>
        <mxCell id="f9LRDdckMzS_uq0sf7Ku-3" value="" style="edgeStyle=orthogonalEdgeStyle;rounded=0;orthogonalLoop=1;jettySize=auto;html=1;" edge="1" parent="1" source="kLmIG4iRkcMbvo4lLbTO-14" target="f9LRDdckMzS_uq0sf7Ku-2">
          <mxGeometry relative="1" as="geometry">
            <Array as="points">
              <mxPoint x="520" y="150" />
              <mxPoint x="520" y="150" />
            </Array>
          </mxGeometry>
        </mxCell>
        <mxCell id="f9LRDdckMzS_uq0sf7Ku-7" value="Lösungsansätze" style="edgeLabel;html=1;align=center;verticalAlign=middle;resizable=0;points=[];" vertex="1" connectable="0" parent="f9LRDdckMzS_uq0sf7Ku-3">
          <mxGeometry x="0.2545" y="2" relative="1" as="geometry">
            <mxPoint x="-19" y="2" as="offset" />
          </mxGeometry>
        </mxCell>
        <mxCell id="kLmIG4iRkcMbvo4lLbTO-14" value="Adverse Selection&lt;div&gt;(Hidden Characteristics)&lt;/div&gt;" style="rounded=1;whiteSpace=wrap;html=1;" parent="1" vertex="1">
          <mxGeometry x="260" y="130" width="190" height="40" as="geometry" />
        </mxCell>
        <mxCell id="f9LRDdckMzS_uq0sf7Ku-5" value="" style="edgeStyle=orthogonalEdgeStyle;rounded=0;orthogonalLoop=1;jettySize=auto;html=1;" edge="1" parent="1" source="kLmIG4iRkcMbvo4lLbTO-15" target="f9LRDdckMzS_uq0sf7Ku-4">
          <mxGeometry relative="1" as="geometry" />
        </mxCell>
        <mxCell id="f9LRDdckMzS_uq0sf7Ku-6" value="Lösungsansätze" style="edgeLabel;html=1;align=center;verticalAlign=middle;resizable=0;points=[];" vertex="1" connectable="0" parent="f9LRDdckMzS_uq0sf7Ku-5">
          <mxGeometry x="-0.25" relative="1" as="geometry">
            <mxPoint x="9" as="offset" />
          </mxGeometry>
        </mxCell>
        <mxCell id="kLmIG4iRkcMbvo4lLbTO-15" value="Moral Hazard&lt;div&gt;(Hidden Actions)&lt;/div&gt;" style="rounded=1;whiteSpace=wrap;html=1;" parent="1" vertex="1">
          <mxGeometry x="260" y="340" width="190" height="40" as="geometry" />
        </mxCell>
        <mxCell id="kLmIG4iRkcMbvo4lLbTO-16" value="&lt;font style=&quot;font-size: 18px;&quot;&gt;Prinzipal Agent Theory&lt;/font&gt;" style="rounded=1;whiteSpace=wrap;html=1;" parent="1" vertex="1">
          <mxGeometry x="40" y="60" width="660" height="40" as="geometry" />
        </mxCell>
        <mxCell id="f9LRDdckMzS_uq0sf7Ku-2" value="- Signaling&lt;div&gt;- Self Selection&lt;/div&gt;&lt;div&gt;- Screening&lt;/div&gt;" style="rounded=1;whiteSpace=wrap;html=1;align=left;" vertex="1" parent="1">
          <mxGeometry x="560" y="120" width="120" height="60" as="geometry" />
        </mxCell>
        <mxCell id="f9LRDdckMzS_uq0sf7Ku-4" value="- Monitoring&lt;div&gt;- Bonding&lt;/div&gt;&lt;div&gt;- Incentives&lt;/div&gt;" style="rounded=1;whiteSpace=wrap;html=1;align=left;" vertex="1" parent="1">
          <mxGeometry x="560" y="330" width="120" height="60" as="geometry" />
        </mxCell>
      </root>
    </mxGraphModel>
  </diagram>
</mxfile>
